# xmcd
#
# Track frame offsets: 
#        150
#        29272
#        56757
#        92312
#        129522
#        178570
#        187397
#        235902
#        251995
#        289540
#        339170
#
# Disc length: 4713 seconds
#
# Revision: 15
# Processed by: cddbd v1.5.2PL0 Copyright (c) Steve Scherf et al.
# Submitted via: ExactAudioCopyFreeDBPlugin 1.0
#
DISCID=9912670b
DTITLE=Ten Years After - Recorded Live
DYEAR=1973
DGENRE=Rock
TTITLE0=One Of These Days
TTITLE1=You Give Me Loving
TTITLE2=Good Morning Little Schoolgirl
TTITLE3=Hobbit
TTITLE4=Help Me
TTITLE5=I Can't Keep From Cryin' Sometimes
TTITLE6=Extension On One Chord
TTITLE7=I Can't Keep From Cryin' Sometimes
TTITLE8=Slow Blues In 'C'
TTITLE9=I'm Going Home
TTITLE10=Choo Choo Mama
EXTD=
EXTT0=
EXTT1=
EXTT2=
EXTT3=
EXTT4=
EXTT5=
EXTT6=
EXTT7=
EXTT8=
EXTT9=
EXTT10=
PLAYORDER=
